<svg id="svg" version="1.1" xmlns="http://www.w3.org/2000/svg" xmlns:xlink="http://www.w3.org/1999/xlink" width="400" height="31.8407960199005" viewBox="0, 0, 400,31.8407960199005"><g id="svgg"><path id="path0" d="M19.026 1.239 C 19.061 1.920,19.145 2.534,19.213 2.602 C 19.544 2.933,23.197 2.977,51.875 2.988 L 82.667 3.000 82.667 3.565 C 82.667 3.876,82.810 4.307,82.985 4.523 L 83.304 4.917 92.882 4.970 L 102.459 5.024 102.544 5.776 C 102.680 6.979,102.206 6.911,110.893 6.969 L 118.770 7.020 118.927 7.552 C 119.278 8.744,120.058 8.909,125.620 8.970 L 130.489 9.023 130.598 9.604 C 130.809 10.730,132.099 10.992,137.458 10.997 L 140.500 11.000 140.503 11.542 C 140.508 12.691,140.867 12.803,144.988 12.941 L 148.296 13.051 148.387 13.728 C 148.520 14.720,148.780 14.833,150.923 14.833 C 151.945 14.833,153.581 14.882,154.557 14.942 L 156.333 15.051 156.333 15.680 C 156.333 16.813,156.408 16.833,160.512 16.833 L 164.167 16.833 164.167 17.570 C 164.167 18.892,164.023 18.833,167.260 18.833 L 170.150 18.833 170.200 19.792 L 170.250 20.750 172.363 20.797 L 174.476 20.843 174.584 21.336 C 174.704 21.884,175.377 22.500,175.856 22.500 C 176.027 22.500,176.167 22.575,176.167 22.667 C 176.167 22.769,176.944 22.833,178.167 22.833 L 180.167 22.833 180.167 23.633 C 180.167 24.768,180.286 24.833,182.367 24.833 L 184.167 24.833 184.167 25.468 C 184.167 26.578,184.384 26.709,186.374 26.797 L 188.131 26.875 188.232 27.479 C 188.415 28.574,188.916 28.800,191.208 28.823 L 192.167 28.833 192.167 29.563 C 192.167 30.735,192.194 30.743,196.567 30.801 C 201.559 30.868,201.706 30.837,201.887 29.701 L 202.025 28.833 202.813 28.833 C 203.802 28.833,204.000 28.633,204.000 27.633 L 204.000 26.833 205.708 26.831 C 207.751 26.828,207.780 26.813,207.927 25.705 L 208.043 24.833 209.675 24.833 C 211.824 24.833,211.833 24.828,211.833 23.737 L 211.833 22.844 213.792 22.797 L 215.750 22.750 215.800 21.803 L 215.849 20.855 218.661 20.803 C 221.835 20.743,221.687 20.796,221.795 19.670 L 221.876 18.833 223.855 18.833 C 225.063 18.833,225.833 18.768,225.833 18.667 C 225.833 18.575,225.973 18.500,226.144 18.500 C 226.624 18.500,227.296 17.884,227.417 17.331 L 227.526 16.833 230.315 16.833 C 233.434 16.833,233.570 16.791,233.723 15.771 C 233.776 15.416,233.842 15.103,233.869 15.075 C 233.897 15.048,235.426 14.953,237.268 14.865 C 240.973 14.688,241.246 14.612,241.494 13.690 L 241.665 13.052 244.520 12.940 C 247.846 12.809,247.667 12.872,247.667 11.845 L 247.667 11.042 252.512 10.970 C 257.900 10.890,257.660 10.948,257.664 9.718 L 257.667 9.020 263.430 8.968 C 269.911 8.910,269.667 8.962,269.667 7.643 L 269.667 7.017 278.423 6.967 C 288.185 6.911,287.493 7.007,287.497 5.708 L 287.500 5.000 296.896 5.000 C 308.015 5.000,307.279 5.077,307.426 3.898 L 307.538 3.000 341.728 2.980 C 360.532 2.969,376.142 2.913,376.417 2.854 L 376.917 2.748 376.965 1.374 L 377.013 0.000 197.989 0.000 L 18.964 0.000 19.026 1.239 " stroke="none" fill="#042ca4" fill-rule="evenodd"></path><path id="path1" d="" stroke="none" fill="#082ca4" fill-rule="evenodd"></path><path id="path2" d="" stroke="none" fill="#082ca4" fill-rule="evenodd"></path><path id="path3" d="" stroke="none" fill="#082ca4" fill-rule="evenodd"></path><path id="path4" d="" stroke="none" fill="#082ca4" fill-rule="evenodd"></path></g></svg>