<svg xmlns="http://www.w3.org/2000/svg" xmlns:xlink="http://www.w3.org/1999/xlink" preserveAspectRatio="xMidYMid" width="1536" height="494" viewBox="0 0 1536 494">
  <defs>
    <style>
      .cls-1 {
        fill: #ecf1f6;
      }

      .cls-1, .cls-2, .cls-3 {
        fill-rule: evenodd;
      }

      .cls-2 {
        fill: #efe422;
      }

      .cls-3 {
        fill: #fff;
        opacity: 0.3;
      }
    </style>
  </defs>
  <path d="M767.953,446.210 C767.970,446.207 768.000,446.201 768.000,446.201 L768.000,485.799 C768.000,485.799 760.207,471.544 690.992,469.319 C333.163,472.223 -0.000,494.000 -0.000,494.000 L-0.000,0.000 C-0.000,0.000 382.563,25.000 768.094,25.000 L767.953,446.210 Z" class="cls-1"/>
  <path d="M845.008,469.319 C775.793,471.544 768.000,485.799 768.000,485.799 L768.000,446.201 C768.000,446.201 768.030,446.207 768.047,446.210 L767.906,25.000 C1153.437,25.000 1536.000,0.000 1536.000,0.000 L1536.000,494.000 C1536.000,494.000 1202.837,472.223 845.008,469.319 Z" class="cls-2"/>
  <path d="M496.898,23.189 C499.788,23.240 502.679,23.291 505.570,23.343 C505.363,23.549 505.157,23.755 504.951,23.962 C501.905,27.673 498.859,31.386 495.814,35.098 C489.981,43.244 484.146,51.392 478.314,59.537 C463.128,84.154 449.555,110.465 439.752,140.587 C433.299,160.418 428.694,182.434 425.660,204.930 C424.989,211.787 424.317,218.646 423.646,225.502 C423.595,227.977 423.543,230.452 423.492,232.926 C423.337,235.969 423.182,239.011 423.027,242.053 C424.174,250.629 422.351,258.770 423.646,266.955 C423.646,268.347 423.646,269.739 423.646,271.131 C424.209,274.000 423.725,277.629 424.421,280.876 C425.763,290.568 427.105,300.263 428.447,309.954 C434.158,340.732 444.137,368.761 455.858,393.943 C458.181,398.325 460.505,402.708 462.827,407.090 C467.491,416.651 472.527,425.853 478.314,434.467 C486.842,447.162 496.335,458.863 505.415,470.816 C502.983,470.858 498.893,471.355 497.052,470.506 C494.162,466.897 491.271,463.287 488.380,459.679 C482.905,451.353 476.721,443.447 471.190,435.086 C455.119,410.792 441.919,382.713 431.854,352.800 C426.039,335.516 422.886,316.261 419.310,297.117 C418.433,287.786 417.555,278.451 416.678,269.121 C416.626,266.594 416.574,264.068 416.523,261.541 C415.936,257.758 415.794,248.777 416.368,245.765 C416.368,242.929 416.368,240.093 416.368,237.257 C417.372,230.917 416.395,224.529 417.762,218.697 C417.865,216.480 417.968,214.262 418.071,212.046 C419.155,204.004 420.240,195.959 421.324,187.916 C424.461,171.810 428.425,155.997 432.474,140.741 C434.358,133.639 437.527,126.210 440.217,119.705 C443.189,112.518 445.702,105.932 448.580,98.979 C450.438,95.422 452.297,91.864 454.155,88.307 C461.066,74.617 468.449,61.897 476.765,49.638 C483.009,40.433 490.589,32.186 496.898,23.189 ZM511.765,23.189 C515.275,23.240 518.785,23.291 522.295,23.343 C522.192,23.343 522.089,23.343 521.986,23.343 C519.085,25.724 515.295,27.999 513.313,31.231 C508.019,39.867 504.944,51.157 511.145,61.547 C515.445,68.753 524.031,72.198 528.645,79.180 C530.901,82.594 532.870,86.790 534.220,90.936 C534.951,93.182 534.539,97.182 536.078,98.669 C536.130,98.669 536.182,98.669 536.233,98.669 C538.080,97.102 539.061,94.544 540.415,92.482 C542.789,89.132 545.164,85.780 547.538,82.429 C556.218,70.210 576.602,55.398 569.065,32.778 C567.858,29.156 565.670,26.035 563.644,23.189 C566.225,23.240 568.807,23.291 571.388,23.343 C572.317,25.302 573.246,27.262 574.175,29.221 C575.355,32.781 575.841,36.412 576.498,40.512 C576.920,43.148 575.285,48.420 576.653,49.483 C580.260,47.716 582.698,43.286 585.790,40.822 C591.472,36.293 596.822,31.604 602.825,27.366 C604.580,25.973 606.336,24.580 608.091,23.189 C611.807,23.240 615.524,23.291 619.241,23.343 C619.138,23.343 619.034,23.343 618.931,23.343 C614.337,26.591 609.742,29.840 605.148,33.087 C599.935,37.366 594.720,41.646 589.507,45.926 C587.958,47.524 586.409,49.122 584.861,50.721 C574.218,59.425 566.283,70.501 557.295,80.882 C548.973,90.493 542.020,101.575 535.614,113.054 C524.395,133.159 514.862,154.224 508.358,179.409 C500.800,208.673 495.539,249.380 502.008,283.505 C502.933,288.383 502.967,293.323 504.176,298.354 C509.127,318.949 513.841,339.022 522.450,356.202 C529.175,369.622 535.576,382.736 543.512,394.871 C549.797,404.480 557.221,413.149 564.264,421.938 C568.357,427.048 574.278,434.307 579.286,438.334 C587.236,444.727 594.141,452.406 602.361,458.596 C608.038,462.669 613.718,466.743 619.396,470.816 C615.731,470.816 612.065,470.816 608.400,470.816 C606.232,469.115 604.064,467.413 601.896,465.711 C595.978,461.544 590.840,458.048 582.228,456.431 C580.473,456.225 578.718,456.019 576.963,455.812 C569.757,457.343 564.070,458.292 559.153,461.845 C556.002,464.121 552.056,469.711 548.313,470.816 C543.151,470.816 537.988,470.816 532.826,470.816 C526.684,470.816 520.540,470.816 514.397,470.816 C511.565,469.963 508.457,466.283 506.654,464.165 C502.351,459.109 493.828,448.089 496.433,437.097 C499.407,424.548 505.820,418.465 516.565,413.741 C519.256,412.558 524.166,411.797 527.561,412.349 C530.880,412.889 533.165,412.794 535.923,413.586 C545.476,416.327 552.629,424.157 554.662,434.467 C557.626,449.495 547.550,460.116 536.543,462.773 C535.131,463.114 533.172,463.936 530.968,463.545 C525.272,462.541 521.255,460.248 517.495,457.359 C514.017,454.688 510.453,449.196 509.442,444.212 C506.355,429.002 524.745,418.823 536.698,427.197 C544.793,432.869 545.509,447.387 534.375,450.244 C528.753,451.686 524.758,447.970 523.534,444.057 C522.254,439.963 524.532,434.907 526.787,434.003 C528.617,433.477 529.654,434.468 530.813,435.395 C530.804,438.656 529.287,440.079 529.884,442.974 C532.960,445.232 538.325,443.264 536.853,437.870 C535.798,434.005 531.481,429.110 525.548,430.292 C512.518,432.884 514.303,448.259 522.915,454.111 C535.204,462.461 552.676,450.389 548.777,435.086 C547.857,431.473 545.761,428.057 543.667,425.496 C541.250,422.541 537.581,420.569 533.446,419.309 C518.890,414.874 507.561,423.804 504.021,434.622 C503.099,437.442 502.550,442.605 503.557,446.068 C505.157,451.574 507.717,455.498 510.835,459.370 C512.952,461.998 515.949,464.575 519.043,466.175 C528.186,470.906 538.797,470.100 546.609,464.629 C549.052,462.918 551.027,460.279 553.423,458.596 C556.392,456.512 559.296,455.293 562.715,453.492 C566.120,451.699 575.742,448.613 581.299,450.398 C581.557,450.193 581.815,449.987 582.073,449.780 C582.073,449.625 582.073,449.470 582.073,449.316 C575.007,442.374 567.334,435.786 561.321,427.817 C555.920,420.658 547.344,410.697 538.247,407.554 C520.242,401.334 509.615,413.351 495.039,415.906 C492.308,416.385 488.868,415.728 486.986,415.288 C472.646,411.931 464.803,404.111 460.504,390.849 C459.395,387.427 457.489,382.583 458.336,377.392 C460.550,363.838 467.462,355.215 479.863,352.026 C500.433,346.735 521.937,364.290 516.720,384.662 C514.282,394.183 507.412,401.278 497.517,403.378 C484.709,406.096 476.370,396.778 473.048,388.684 C472.156,386.510 470.177,382.708 470.725,379.404 C472.051,371.411 475.592,365.804 482.805,363.936 C494.171,360.992 506.853,369.190 504.951,380.486 C503.381,389.802 491.380,395.514 485.902,386.209 C485.221,385.053 483.989,382.658 484.353,380.795 C484.852,378.247 487.605,372.696 491.168,373.526 C496.414,374.747 490.956,379.906 490.858,382.806 C498.610,388.907 500.377,377.992 496.278,372.752 C490.823,365.779 479.565,370.479 477.539,377.392 C474.415,388.055 486.679,400.126 497.672,396.881 C504.400,394.896 508.903,389.953 510.835,383.115 C511.939,379.209 510.565,374.941 509.597,372.443 C505.730,362.472 498.896,357.609 485.438,357.131 C478.561,356.885 469.621,364.504 467.163,369.040 C458.645,384.760 471.933,403.690 483.115,408.018 C485.823,409.067 490.040,410.200 493.955,409.565 C504.514,407.853 509.700,402.972 519.198,400.438 C523.615,399.261 529.623,399.429 534.220,400.284 C535.883,400.594 538.424,401.972 540.105,401.213 C540.105,401.161 540.105,401.109 540.105,401.057 C539.490,399.104 537.828,397.837 536.853,396.262 C534.511,392.482 531.869,388.510 529.884,384.662 C522.332,370.021 516.354,353.037 500.459,346.767 C491.097,343.073 479.129,346.787 470.106,348.469 C466.517,349.137 462.616,348.004 460.194,347.386 C449.251,344.590 442.496,337.860 438.204,328.516 C436.760,325.371 435.953,321.507 435.261,317.843 C431.457,297.681 450.501,277.143 471.190,283.660 C483.011,287.383 491.828,294.917 494.265,308.562 C496.583,321.547 486.078,332.335 477.694,335.476 C469.197,338.659 458.577,335.401 454.465,330.372 C446.707,320.887 443.427,302.387 457.407,296.807 C460.472,295.583 464.985,294.257 469.332,295.415 C471.375,295.960 473.719,297.111 475.371,298.199 C484.609,304.283 484.175,321.123 472.119,324.030 C466.296,325.434 461.664,319.331 460.814,315.368 C459.944,311.311 465.593,304.819 468.867,306.088 C473.996,308.032 468.596,312.226 467.009,313.822 C467.021,316.057 468.155,316.797 469.332,317.843 C476.794,318.057 476.618,310.058 473.823,305.469 C469.175,297.839 456.736,301.608 454.465,308.872 C450.417,321.819 463.243,333.967 475.526,329.598 C482.058,327.275 485.946,322.460 487.761,315.368 C488.723,311.604 487.434,307.083 486.522,304.541 C482.413,293.096 468.962,284.610 454.310,291.394 C451.061,292.897 448.022,294.939 446.102,297.735 C436.646,311.506 443.436,331.999 454.619,338.723 C457.462,340.433 461.187,341.478 464.841,342.281 C474.030,344.301 481.193,337.499 490.238,338.879 C495.259,339.645 499.814,339.980 503.867,341.662 C505.973,342.537 507.908,344.430 510.371,344.756 C511.181,343.589 509.346,339.882 508.822,338.414 C506.655,332.338 504.522,325.577 502.628,319.081 C497.822,302.605 496.425,288.451 482.495,281.030 C478.437,278.868 473.778,278.608 468.402,277.473 C463.488,276.435 458.033,277.722 453.690,276.854 C441.817,274.482 433.184,266.233 429.686,255.509 C428.789,252.758 429.083,250.517 428.292,247.312 C427.916,245.787 427.450,242.719 427.828,240.506 C430.175,226.772 434.857,216.784 446.412,212.510 C464.214,205.925 478.687,217.532 484.663,228.905 C487.005,233.363 488.983,242.209 486.522,247.930 C483.253,255.529 478.069,261.607 470.416,264.790 C455.107,271.156 443.266,259.891 440.836,247.621 C438.565,236.150 444.394,226.644 452.296,224.110 C463.614,220.481 477.342,229.981 475.371,241.588 C474.123,248.940 468.297,255.964 459.420,252.416 C457.293,251.565 455.629,250.887 454.465,249.168 C449.778,242.245 459.318,230.636 464.995,237.257 C464.946,241.342 462.218,240.412 460.040,242.207 C459.622,243.661 459.628,244.776 460.040,246.229 C466.684,250.025 470.840,241.724 468.093,235.401 C464.594,227.350 453.516,228.690 449.044,234.783 C447.897,236.346 447.850,238.281 447.186,240.352 C443.814,250.860 452.270,256.944 459.265,259.221 C460.540,259.637 464.434,260.295 466.389,259.685 C472.354,257.823 477.035,254.717 479.398,249.322 C488.327,228.934 464.310,208.861 445.947,220.243 C431.862,228.974 431.112,251.169 441.921,263.862 C450.564,274.012 467.488,269.058 480.792,273.761 C484.272,274.991 487.937,277.201 490.703,279.329 C492.068,280.379 492.942,282.308 495.039,282.577 C495.091,282.423 495.142,282.268 495.194,282.113 C494.626,276.236 494.058,270.357 493.491,264.480 C493.232,254.788 492.974,245.093 492.716,235.401 C490.013,225.010 487.293,216.598 479.243,211.737 C472.780,207.833 463.901,206.546 456.013,204.003 C445.347,200.564 433.725,184.889 436.965,168.583 C439.687,154.880 446.666,143.703 459.420,140.123 C477.103,135.157 490.672,148.016 495.039,159.612 C496.743,164.136 498.566,172.722 496.123,178.326 C493.021,185.446 487.607,191.341 480.172,194.103 C463.962,200.126 451.973,190.410 449.509,176.471 C447.540,165.332 455.185,155.846 461.743,152.806 C471.834,148.128 482.688,157.714 484.508,164.406 C487.528,175.507 477.812,188.508 466.234,181.575 C454.699,174.667 469.724,157.796 475.216,167.500 C474.818,168.620 474.511,169.748 473.513,170.284 C472.016,170.696 470.519,171.109 469.022,171.521 C468.711,172.643 468.387,173.480 468.402,175.233 C475.335,180.733 481.458,171.309 478.004,164.097 C474.613,157.016 463.431,156.740 458.801,162.859 C457.115,165.087 456.399,167.844 455.858,171.211 C452.769,190.452 479.132,194.830 486.986,182.039 C496.455,166.617 487.537,150.642 473.203,146.619 C469.446,145.564 463.615,145.299 459.885,146.773 C446.560,152.039 437.933,172.173 446.876,188.380 C453.672,200.696 466.188,197.643 477.694,204.003 C481.332,206.013 485.603,208.655 488.225,211.737 C489.980,214.005 491.736,216.274 493.491,218.542 C493.800,218.594 494.110,218.646 494.420,218.697 C494.420,218.594 494.420,218.490 494.420,218.388 C495.297,211.943 496.175,205.497 497.052,199.053 C498.247,194.927 498.683,190.440 499.685,186.061 C502.845,172.254 505.222,158.707 496.743,148.165 C493.819,144.531 490.082,141.409 485.902,139.040 C482.805,137.596 479.707,136.152 476.610,134.709 C470.849,131.144 466.642,125.895 463.911,119.241 C462.517,115.842 460.455,110.219 461.588,105.011 C462.264,101.906 462.356,99.049 463.292,96.195 C467.031,84.792 475.453,75.597 487.451,72.375 C493.434,70.769 500.060,72.735 504.176,74.386 C515.894,79.083 527.758,94.673 521.676,112.281 C514.512,133.024 480.907,136.369 474.597,112.745 C471.474,101.052 480.796,88.435 487.915,85.677 C497.192,82.084 507.248,88.554 509.751,94.803 C514.490,106.632 504.794,122.855 492.407,115.684 C490.453,114.553 487.830,112.272 487.141,109.961 C484.655,101.623 496.118,94.333 501.389,100.526 C501.337,101.351 501.285,102.175 501.234,103.000 C499.600,105.692 491.107,103.134 493.800,109.187 C494.589,110.899 498.379,111.866 500.614,110.580 C504.012,108.624 506.484,101.468 503.867,96.814 C498.746,87.707 486.268,91.478 482.495,99.133 C477.238,109.800 482.631,118.465 491.322,122.026 C493.479,122.908 497.410,124.168 500.769,123.263 C507.090,121.559 511.108,118.064 514.242,113.209 C525.094,96.401 506.191,72.923 486.831,79.490 C475.564,83.312 462.062,102.317 469.951,118.313 C475.001,128.554 482.791,129.589 491.787,135.482 C499.379,140.455 503.227,147.245 507.274,155.899 C507.790,155.796 508.306,155.693 508.822,155.590 C509.027,151.070 512.324,146.391 513.778,142.597 C517.411,133.115 522.103,125.074 525.703,115.838 C527.409,111.459 530.608,105.757 529.574,98.979 C528.480,91.807 526.493,87.417 523.534,82.429 C520.907,78.000 515.359,74.844 511.455,71.602 C506.373,67.381 503.660,61.244 501.853,53.659 C501.232,51.052 500.635,46.553 501.389,43.296 C502.266,40.358 503.144,37.418 504.021,34.480 C506.090,30.225 509.047,26.744 511.765,23.189 ZM547.848,23.189 C550.529,23.139 555.310,22.579 557.140,23.653 C558.069,25.045 558.998,26.437 559.927,27.829 C561.842,31.085 564.924,39.467 563.954,44.688 C561.146,59.798 555.547,67.259 540.879,70.519 C537.393,71.293 532.248,70.922 529.264,69.591 C526.268,68.253 523.505,66.698 521.057,64.796 C503.529,51.179 521.691,17.493 541.654,26.746 C546.433,28.961 550.642,33.861 551.875,39.584 C553.897,48.978 545.300,61.503 535.614,58.454 C528.491,56.212 521.868,47.697 529.884,41.440 C532.896,39.089 540.098,38.341 541.963,42.368 C542.273,43.366 542.038,44.587 541.654,45.307 C540.982,45.719 540.311,46.132 539.640,46.545 C538.500,46.103 536.276,44.982 534.994,45.461 C533.541,46.065 532.912,47.719 532.826,49.638 C537.710,56.658 548.067,49.301 545.990,40.976 C544.904,36.624 541.411,33.206 537.162,32.005 C528.678,29.606 517.546,41.917 520.282,51.339 C521.621,55.947 524.509,60.330 528.335,62.476 C543.641,71.059 560.142,55.594 557.914,39.739 C557.195,34.622 554.605,30.278 552.029,26.900 C550.636,25.664 549.242,24.426 547.848,23.189 ZM1011.049,470.816 C1008.933,470.816 1006.816,470.816 1004.700,470.816 C1004.870,458.069 995.239,452.329 989.523,445.140 C986.332,441.127 984.234,434.822 983.019,429.053 C982.812,426.424 982.606,423.795 982.399,421.165 C982.089,421.165 981.780,421.165 981.470,421.165 C978.434,425.554 974.238,428.988 970.939,433.075 C966.858,438.131 961.966,442.962 957.156,447.305 C951.683,452.247 945.232,458.099 942.599,465.711 C942.237,467.413 941.876,469.115 941.515,470.816 C939.502,470.816 937.488,470.816 935.475,470.816 C935.631,468.997 936.642,467.141 936.249,465.402 C936.198,465.402 936.146,465.402 936.094,465.402 C933.142,466.356 931.341,469.902 928.506,470.816 C924.841,470.816 921.175,470.816 917.511,470.816 C917.614,470.661 917.717,470.506 917.820,470.352 C919.855,469.853 921.514,467.887 923.086,466.794 C928.163,463.265 933.088,459.823 937.643,455.812 C954.812,440.695 971.500,425.683 984.567,406.471 C988.692,400.407 994.070,394.497 997.576,387.910 C1002.668,378.345 1008.547,369.055 1013.062,358.986 C1018.155,347.632 1022.588,335.573 1026.536,323.256 C1031.352,308.229 1032.808,292.361 1036.137,275.462 C1036.499,269.689 1036.860,263.913 1037.221,258.139 C1038.166,252.041 1038.254,242.386 1037.221,235.866 C1035.967,227.947 1037.173,220.441 1035.518,212.973 C1034.621,208.926 1034.417,204.424 1033.505,200.136 C1032.040,193.257 1030.199,185.876 1028.549,179.409 C1019.096,142.364 1002.860,112.824 983.638,85.677 C979.465,79.784 974.172,74.686 969.700,69.127 C963.342,61.224 955.423,52.758 947.709,46.235 C942.393,41.853 937.075,37.470 931.758,33.087 C927.061,29.788 922.363,26.488 917.665,23.189 C921.950,23.189 926.235,23.189 930.519,23.189 C930.300,23.741 930.281,23.783 930.364,24.426 C935.629,28.499 940.896,32.572 946.161,36.645 C957.353,44.824 964.113,56.093 978.837,61.084 C983.721,62.739 991.649,60.878 995.098,59.692 C1006.712,55.696 1018.268,42.096 1035.518,47.936 C1038.995,49.114 1041.943,50.712 1044.655,52.577 C1047.793,54.735 1051.240,57.298 1053.327,60.465 C1057.310,66.506 1059.399,71.397 1061.380,79.335 C1062.570,84.103 1060.518,89.362 1059.522,92.328 C1055.701,103.702 1040.962,114.384 1024.368,110.270 C1015.793,108.145 1009.493,102.798 1005.474,96.040 C1004.110,93.748 1004.054,91.483 1003.306,88.461 C998.359,68.464 1019.755,51.985 1037.066,62.476 C1042.228,65.604 1046.942,72.125 1048.371,78.872 C1051.210,92.261 1035.892,103.697 1023.903,97.587 C1014.030,92.556 1009.802,76.979 1023.129,72.375 C1035.027,68.264 1038.503,88.485 1029.168,89.080 C1027.756,88.436 1027.324,87.802 1026.381,86.760 C1026.432,83.889 1029.283,82.826 1028.394,80.418 C1026.962,77.230 1022.242,78.440 1021.115,81.037 C1019.325,85.163 1023.034,89.773 1025.142,91.245 C1032.270,96.225 1044.526,89.250 1041.867,79.490 C1040.208,73.400 1036.500,67.947 1030.562,66.188 C1018.891,62.728 1010.612,71.982 1008.881,80.573 C1008.726,81.810 1008.571,83.047 1008.416,84.284 C1010.424,93.749 1014.825,100.944 1023.283,103.774 C1038.783,108.959 1051.097,98.987 1054.411,87.688 C1055.988,82.315 1053.980,75.411 1052.398,71.911 C1048.005,62.189 1037.296,49.956 1021.425,53.659 C1011.270,56.029 1006.160,63.592 996.027,66.188 C990.064,67.716 983.217,67.136 977.443,66.652 C977.340,66.859 977.237,67.064 977.134,67.271 C981.263,72.426 985.394,77.582 989.523,82.738 C998.404,95.028 1005.480,111.690 1021.735,116.458 C1033.354,119.865 1044.332,114.053 1053.327,111.507 C1069.336,106.977 1083.263,120.197 1088.172,129.759 C1089.793,132.916 1091.004,136.957 1091.734,140.741 C1093.009,147.358 1091.360,153.796 1089.721,158.528 C1081.370,182.633 1045.445,180.188 1035.518,159.302 C1028.822,145.213 1036.683,130.818 1046.513,125.428 C1049.038,124.043 1051.402,123.958 1054.721,123.263 C1060.149,122.125 1065.959,124.201 1069.124,126.511 C1074.880,130.714 1077.799,137.195 1079.654,145.381 C1082.744,159.015 1064.436,168.505 1053.482,161.931 C1044.792,156.716 1040.931,139.134 1054.102,135.946 C1055.955,135.497 1058.340,136.141 1059.367,136.565 C1061.842,137.586 1063.799,138.487 1065.097,140.587 C1068.222,145.640 1064.482,153.522 1058.593,153.424 C1057.666,152.888 1056.062,151.414 1056.579,150.021 C1056.912,147.960 1058.929,147.263 1059.986,145.846 C1060.059,142.431 1056.295,140.456 1053.482,142.442 C1050.643,144.447 1051.812,150.728 1053.172,153.269 C1057.309,161.001 1070.389,157.831 1072.685,150.485 C1076.501,138.276 1064.876,126.471 1052.553,129.914 C1044.667,132.116 1041.126,137.654 1039.235,146.000 C1038.342,149.940 1041.294,156.567 1042.642,158.683 C1051.430,172.479 1072.784,174.595 1082.287,159.920 C1084.245,156.897 1086.327,151.035 1085.539,146.155 C1085.436,144.195 1085.333,142.236 1085.229,140.276 C1081.132,128.212 1075.383,120.189 1062.154,117.231 C1054.725,115.569 1048.142,119.782 1043.106,121.407 C1039.921,122.434 1036.675,122.805 1033.040,123.418 C1028.564,124.172 1022.924,123.171 1019.567,122.026 C1017.810,121.425 1014.976,119.433 1013.062,119.860 C1013.062,119.911 1013.062,119.962 1013.062,120.015 C1013.321,122.325 1014.876,124.161 1015.850,125.892 C1017.553,129.501 1019.257,133.111 1020.960,136.719 C1028.878,153.517 1030.985,172.607 1048.371,179.873 C1052.165,181.459 1062.051,182.633 1067.730,181.420 C1070.770,180.771 1075.649,180.096 1079.344,180.802 C1094.071,183.614 1102.720,192.549 1106.446,206.322 C1111.602,225.386 1100.869,240.989 1086.778,245.765 C1069.817,251.513 1053.398,237.829 1049.610,226.894 C1048.536,223.792 1047.310,219.289 1048.062,214.830 C1049.775,204.666 1056.479,196.390 1065.252,193.330 C1078.009,188.882 1088.195,195.858 1092.353,204.466 C1097.435,214.988 1094.265,228.498 1085.694,232.617 C1077.885,236.371 1067.528,233.441 1063.703,227.823 C1058.525,220.216 1058.940,210.833 1066.955,206.477 C1068.605,205.581 1071.619,204.482 1074.389,205.240 C1078.008,206.230 1081.122,208.476 1081.977,212.200 C1083.427,218.517 1075.514,225.954 1071.137,221.481 C1070.869,217.564 1072.822,217.508 1075.318,216.068 C1075.564,215.263 1075.748,214.048 1075.318,213.129 C1074.647,212.458 1073.976,211.788 1073.305,211.118 C1065.696,210.825 1065.243,219.730 1068.814,224.575 C1074.550,232.356 1085.495,226.701 1088.017,219.934 C1088.901,217.562 1088.517,213.521 1088.017,211.273 C1086.180,203.014 1078.127,195.821 1067.110,199.208 C1060.711,201.175 1056.579,206.453 1054.721,212.973 C1053.829,216.105 1054.723,221.014 1055.341,223.337 C1058.430,234.963 1069.708,243.331 1084.765,239.422 C1088.678,238.407 1092.195,236.589 1094.366,233.855 C1096.695,230.923 1098.679,227.644 1099.942,223.646 C1100.971,220.389 1101.205,215.263 1100.561,211.427 C1098.369,198.369 1092.236,190.628 1080.429,187.298 C1071.867,184.884 1063.325,189.625 1054.876,187.762 C1050.397,186.774 1045.748,185.486 1042.177,183.431 C1040.339,182.373 1037.787,179.473 1035.673,179.565 C1035.673,179.873 1035.673,180.183 1035.673,180.492 C1038.348,189.688 1039.542,199.855 1041.403,209.726 C1042.783,217.049 1042.231,225.097 1044.964,231.071 C1046.724,234.917 1049.023,238.539 1051.469,241.743 C1055.021,246.398 1061.315,249.559 1067.730,251.334 C1072.514,252.656 1077.480,251.350 1081.977,252.880 C1095.744,257.566 1102.023,263.936 1105.826,278.710 C1106.382,280.868 1107.054,285.436 1106.601,288.300 C1105.850,293.043 1105.282,297.169 1103.658,300.984 C1100.304,308.864 1093.872,315.586 1085.075,317.998 C1067.300,322.869 1053.326,311.789 1048.836,299.282 C1047.189,294.692 1045.521,287.025 1047.597,281.185 C1051.574,269.999 1067.270,257.527 1082.752,265.408 C1089.118,268.650 1092.514,275.077 1093.902,283.351 C1095.728,294.232 1088.428,303.634 1081.358,305.933 C1070.025,309.618 1056.624,299.112 1058.748,287.836 C1059.880,281.822 1065.590,272.581 1073.924,276.391 C1075.977,277.328 1077.735,277.870 1079.035,279.484 C1085.023,286.921 1076.570,297.806 1069.124,292.786 C1069.020,292.218 1068.917,291.651 1068.814,291.084 C1070.101,288.161 1072.772,288.276 1074.853,286.289 C1074.905,284.260 1074.258,283.400 1073.460,282.268 C1065.741,279.740 1062.973,289.870 1066.646,295.570 C1071.501,303.105 1082.654,300.080 1086.004,293.404 C1092.360,280.740 1081.468,266.216 1067.265,269.739 C1061.884,271.074 1057.686,274.659 1055.341,279.019 C1044.156,299.814 1069.658,321.262 1088.791,309.336 C1099.633,302.578 1104.418,280.811 1095.141,268.502 C1092.144,264.526 1087.564,261.343 1082.597,259.376 C1080.250,258.447 1077.902,258.915 1075.163,258.448 C1070.714,257.688 1065.447,257.539 1061.535,255.664 C1057.738,253.844 1054.121,251.837 1050.849,249.477 C1048.733,247.312 1046.616,245.146 1044.500,242.980 C1043.907,243.185 1044.178,242.980 1043.880,243.445 C1043.726,249.889 1043.571,256.335 1043.416,262.779 C1040.122,283.334 1038.737,305.233 1052.088,315.677 C1058.033,320.328 1066.670,321.445 1073.305,325.577 C1080.893,330.302 1085.365,335.572 1088.327,345.065 C1089.689,349.432 1090.448,356.721 1088.946,361.925 C1085.146,375.096 1078.174,384.607 1065.097,388.529 C1059.365,390.248 1052.316,388.419 1048.217,386.673 C1038.185,382.399 1025.445,369.906 1029.168,354.501 C1030.000,351.058 1030.002,348.715 1031.491,346.148 C1035.374,339.460 1041.600,334.443 1050.230,332.537 C1064.156,329.461 1079.201,340.900 1077.021,354.501 C1075.498,364.009 1072.105,372.573 1064.013,375.381 C1051.255,379.810 1037.675,368.031 1041.093,354.810 C1043.641,344.951 1058.104,339.764 1063.703,350.015 C1068.329,358.484 1055.141,367.859 1050.385,360.378 C1050.661,358.698 1051.406,357.908 1052.398,356.976 C1053.843,356.924 1055.289,356.872 1056.734,356.821 C1057.147,356.305 1057.560,355.790 1057.973,355.274 C1058.032,354.030 1058.053,353.387 1057.818,352.335 C1050.650,346.991 1043.980,356.528 1047.752,363.936 C1052.879,374.003 1064.606,369.413 1068.969,362.080 C1075.915,350.402 1064.062,335.005 1050.540,338.260 C1045.237,339.537 1040.425,343.061 1037.996,347.231 C1027.789,364.748 1045.053,389.285 1065.716,381.414 C1077.105,377.076 1089.042,357.804 1080.893,341.818 C1074.688,329.643 1062.133,329.945 1051.469,322.792 C1047.730,320.284 1043.737,316.336 1041.248,312.584 C1040.164,310.625 1039.079,308.666 1037.996,306.707 C1037.841,306.654 1037.686,306.603 1037.531,306.552 C1037.376,306.707 1037.221,306.861 1037.066,307.016 C1037.068,309.952 1035.747,312.867 1035.053,315.213 C1031.878,325.954 1029.396,335.405 1025.916,345.375 C1024.445,349.591 1020.980,358.162 1022.509,364.709 C1024.082,371.444 1026.496,376.506 1030.097,381.105 C1033.624,385.607 1039.644,388.121 1044.345,391.468 C1051.010,396.214 1054.561,402.782 1056.734,412.194 C1057.220,414.298 1057.841,417.934 1057.199,420.701 C1056.579,423.279 1055.960,425.857 1055.341,428.435 C1053.746,432.563 1051.503,436.481 1048.991,439.727 C1045.870,443.758 1041.752,448.030 1036.912,450.244 C1011.812,461.724 986.585,434.568 997.731,409.565 C1000.163,404.109 1005.439,399.359 1010.894,396.881 C1015.643,394.725 1022.833,394.487 1028.084,396.108 C1043.540,400.879 1049.751,416.554 1039.389,431.219 C1035.972,436.056 1030.625,438.885 1023.903,440.035 C1022.381,440.296 1020.389,439.433 1019.412,439.107 C1009.136,435.684 1001.724,420.960 1011.204,411.266 C1017.388,404.943 1030.071,406.496 1031.956,415.906 C1032.884,420.542 1028.699,424.849 1025.761,425.806 C1022.037,427.017 1016.943,425.935 1016.934,421.938 C1018.834,417.543 1020.207,420.611 1023.283,419.928 C1026.150,418.889 1024.995,414.169 1022.819,413.277 C1015.473,411.137 1010.570,421.596 1014.146,427.662 C1019.518,436.772 1030.558,433.778 1035.518,426.579 C1037.674,423.450 1038.647,418.683 1037.686,414.205 C1034.713,400.351 1018.505,397.192 1008.107,406.162 C990.858,421.041 1008.147,454.822 1032.730,444.521 C1043.400,440.050 1053.176,427.017 1050.230,412.039 C1049.592,408.795 1048.960,405.829 1047.287,403.533 C1041.762,395.944 1032.437,392.594 1026.226,385.745 C1023.141,382.343 1020.849,377.912 1018.792,373.526 C1018.224,371.463 1017.657,369.401 1017.089,367.338 C1016.390,367.372 1016.254,367.448 1015.850,367.648 C1014.184,372.965 1010.570,377.803 1007.952,382.342 C1004.134,388.959 1000.538,395.175 996.492,401.522 C992.830,407.265 986.947,415.116 988.594,425.651 C989.754,433.075 991.944,439.381 996.027,443.902 C1002.648,451.234 1010.864,457.022 1011.049,470.816 ZM1016.160,23.189 C1016.416,40.890 1006.926,50.070 992.775,54.278 C974.269,59.781 953.235,41.378 958.550,23.189 C960.511,23.189 962.473,23.189 964.435,23.189 C964.435,23.240 964.435,23.291 964.435,23.343 C959.743,39.759 978.010,53.249 994.169,47.782 C1003.377,44.666 1010.695,35.309 1009.500,23.189 C1011.720,23.189 1013.940,23.189 1016.160,23.189 ZM996.337,23.189 C998.505,23.189 1000.673,23.189 1002.841,23.189 C1003.673,35.647 998.184,40.028 988.749,42.987 C986.904,43.565 983.761,42.825 982.554,42.522 C974.920,40.612 965.943,32.745 971.559,23.189 C977.340,23.189 983.122,23.189 988.903,23.189 C989.920,27.744 989.090,32.105 985.032,33.397 C983.802,32.865 983.085,32.128 982.244,31.231 C982.284,28.667 983.648,27.868 983.173,25.199 C981.854,23.768 979.947,23.628 977.753,24.271 C973.646,30.144 979.877,38.677 987.664,36.954 C994.445,35.455 996.652,31.063 996.337,23.189 ZM1030.872,23.189 C1033.866,23.189 1036.860,23.189 1039.854,23.189 C1042.693,26.849 1045.533,30.510 1048.371,34.170 C1053.894,42.161 1059.419,50.154 1064.942,58.145 C1075.195,73.795 1083.480,91.175 1091.734,108.723 C1094.959,115.581 1096.532,122.638 1099.632,129.759 C1102.563,136.493 1105.291,144.673 1107.220,152.032 C1110.724,165.399 1113.653,179.190 1116.357,193.485 C1117.555,199.818 1117.654,206.745 1118.835,212.510 C1119.145,217.769 1119.455,223.028 1119.764,228.287 C1120.233,230.733 1119.782,233.889 1120.229,236.794 C1121.462,244.804 1121.051,259.872 1119.764,267.729 C1118.883,273.110 1119.368,279.496 1118.370,284.588 C1117.365,289.724 1117.819,294.082 1116.822,298.973 C1114.246,311.603 1112.752,324.219 1109.233,336.095 C1104.054,353.575 1099.045,370.997 1091.734,386.673 C1086.504,397.885 1080.658,408.897 1075.008,419.464 C1067.999,432.573 1059.765,444.371 1051.314,455.966 C1048.050,460.446 1043.947,467.521 1039.699,470.816 C1036.912,470.816 1034.124,470.816 1031.336,470.816 C1031.543,470.610 1031.750,470.403 1031.956,470.197 C1035.259,466.176 1038.564,462.154 1041.867,458.133 C1047.442,450.296 1053.018,442.458 1058.593,434.622 C1075.004,410.235 1088.461,381.946 1098.548,351.562 C1105.470,330.711 1110.134,307.292 1112.641,282.732 C1113.541,273.906 1113.569,264.831 1113.570,255.354 C1113.518,251.230 1113.466,247.104 1113.415,242.980 C1113.363,238.547 1113.312,234.112 1113.260,229.679 C1112.634,226.292 1113.286,222.135 1112.486,218.388 C1112.021,213.954 1111.556,209.519 1111.092,205.085 C1109.686,198.566 1109.060,190.834 1107.840,184.978 C1107.530,182.658 1107.220,180.337 1106.910,178.018 C1101.745,159.592 1098.815,141.858 1092.198,124.964 C1084.459,105.205 1075.148,87.326 1065.561,69.745 C1063.755,67.116 1061.948,64.486 1060.141,61.857 C1053.500,51.600 1046.370,42.068 1038.925,32.624 C1036.241,29.479 1033.556,26.333 1030.872,23.189 ZM998.660,470.816 C996.440,470.816 994.220,470.816 992.001,470.816 C991.885,462.156 982.264,451.993 972.023,454.420 C965.441,455.980 961.084,459.030 957.776,463.856 C956.511,465.699 954.721,467.996 954.523,470.816 C952.510,470.816 950.497,470.816 948.484,470.816 C948.484,470.764 948.484,470.712 948.484,470.661 C950.953,460.947 955.925,453.150 964.899,450.089 C981.804,444.323 998.612,455.091 998.660,470.816 ZM985.806,470.816 C983.587,470.816 981.366,470.816 979.147,470.816 C977.381,462.910 970.416,468.055 967.532,470.816 C965.209,470.816 962.886,470.816 960.563,470.816 C962.595,465.979 965.970,462.326 971.249,460.762 C978.335,458.662 985.509,464.903 985.806,470.816 ZM575.724,462.618 C585.463,462.427 594.353,465.212 598.334,470.816 C594.773,470.816 591.210,470.816 587.648,470.816 C584.864,470.092 582.213,469.052 578.357,468.650 C574.295,468.227 571.063,470.098 568.290,470.816 C564.780,470.816 561.269,470.816 557.760,470.816 C557.914,470.610 558.069,470.403 558.224,470.197 C561.161,468.816 563.645,466.104 566.896,464.784 C569.876,463.574 572.911,463.898 575.724,462.618 Z" class="cls-3"/>
  <path d="M872.260,226.478 C866.313,219.766 858.969,214.396 856.024,211.428 C854.954,210.485 853.884,209.542 852.814,208.599 C845.870,203.984 838.242,193.421 833.934,186.857 C833.575,186.323 832.210,185.376 832.130,186.779 C831.971,192.011 836.224,196.530 837.602,205.268 C841.012,219.586 833.269,237.742 814.272,241.374 C809.464,242.294 805.625,242.520 802.568,242.348 C813.309,246.463 821.623,254.033 829.583,260.055 C827.879,256.578 826.375,252.826 825.852,248.967 C831.438,246.732 849.735,274.916 835.335,237.654 C844.620,221.498 841.611,224.222 849.980,255.087 C861.800,283.187 860.639,300.703 859.929,310.791 C859.219,320.881 857.272,324.341 850.665,336.334 C851.043,328.232 852.787,326.844 846.531,308.193 C845.846,322.318 847.256,326.046 842.632,337.537 C838.007,349.029 835.486,352.783 829.770,360.914 C831.849,357.251 846.917,315.978 816.111,278.480 C829.654,280.247 834.894,279.208 835.987,276.281 C830.646,275.924 812.522,272.490 800.934,266.643 C791.759,261.929 769.936,250.533 769.936,250.533 C769.936,250.533 757.305,258.620 742.904,265.280 C730.793,270.881 714.606,273.870 706.521,276.310 C707.833,279.293 713.154,280.152 726.707,276.900 C701.860,300.888 704.942,326.663 701.684,337.295 C698.546,347.039 690.227,359.465 690.223,359.510 C690.224,359.492 693.833,346.473 694.724,332.991 C695.631,319.353 689.554,304.916 689.553,304.949 C689.568,304.871 689.417,310.043 688.160,316.319 C686.904,322.597 674.213,338.028 662.420,338.289 C669.359,325.482 676.728,323.146 676.821,306.111 C676.855,305.796 676.856,280.208 687.722,265.956 C698.626,251.504 706.776,232.499 711.792,225.912 C712.145,225.925 712.017,226.898 712.370,226.909 C698.835,264.276 698.441,271.207 712.853,248.518 C715.437,252.257 712.665,258.237 709.947,263.912 C716.340,260.528 718.306,254.526 742.970,241.605 C743.719,241.282 745.093,241.045 745.323,240.489 C745.035,239.349 735.081,234.832 735.081,234.832 C735.081,234.832 729.691,232.250 727.552,230.644 C723.726,227.771 723.130,224.181 721.799,218.764 C721.371,217.115 720.942,215.467 720.514,213.819 C720.143,212.130 719.785,209.518 720.146,207.468 C720.699,204.328 722.328,205.663 724.859,204.781 C725.766,204.466 726.665,204.058 727.736,203.866 C729.452,203.558 731.400,203.982 732.816,204.232 C737.318,205.027 742.199,205.902 746.894,204.903 C748.281,204.659 749.669,204.415 751.056,204.171 C752.117,203.845 753.178,203.520 754.239,203.194 C754.941,203.060 755.755,203.253 756.136,203.499 C758.022,204.716 757.487,210.465 757.299,213.452 C757.082,216.894 757.135,221.500 755.708,223.893 C755.034,224.667 754.361,225.441 753.688,226.214 C752.334,227.998 750.008,232.013 750.627,235.373 C751.300,239.021 754.268,240.501 758.768,239.769 C760.176,239.708 761.584,239.648 762.991,239.587 C767.439,239.587 776.334,239.587 776.334,239.587 C776.334,239.587 783.845,240.556 786.189,239.587 C792.386,237.019 788.196,228.596 785.638,225.420 C784.864,224.460 784.101,223.738 783.679,222.367 C783.001,220.164 783.179,217.520 782.761,214.979 C782.381,212.667 782.039,206.037 783.006,204.354 C783.439,203.600 783.996,203.504 784.842,203.133 C786.422,203.128 787.428,203.789 788.698,204.110 C791.309,204.578 793.921,205.047 796.533,205.514 C798.849,205.896 801.286,205.172 803.143,204.781 C805.428,204.476 807.713,204.171 809.998,203.866 C812.542,203.443 814.092,204.600 815.874,204.965 C817.870,205.373 818.389,204.743 818.943,206.552 C819.579,208.629 819.032,212.065 818.576,214.002 C817.109,220.230 813.626,223.945 812.398,226.092 C811.169,228.239 804.673,233.436 804.673,233.436 C804.673,233.436 800.563,235.730 797.786,237.733 C803.987,237.212 813.368,235.292 819.885,228.790 C829.380,216.749 826.949,199.790 826.949,199.790 C826.949,199.790 826.092,192.273 825.640,185.500 C825.555,182.912 825.686,183.017 824.423,175.279 C823.160,167.542 820.219,161.001 815.053,158.216 C809.888,155.432 802.830,152.661 807.573,153.764 C824.085,154.785 839.153,181.260 847.270,189.866 C849.792,192.540 851.910,195.517 856.157,199.894 C856.331,199.770 856.616,200.340 856.678,199.523 C854.996,192.235 852.451,190.840 847.147,181.250 C841.841,171.660 830.959,154.703 819.342,150.396 C802.555,144.174 792.481,143.333 777.571,142.929 L778.983,141.523 C801.559,135.464 808.247,138.375 821.891,143.662 C835.535,148.950 854.401,176.331 854.401,176.331 C854.401,176.331 865.401,197.544 867.689,207.103 C869.992,219.660 876.815,231.761 872.260,226.478 ZM831.532,91.790 C829.434,94.881 824.985,102.006 824.985,102.006 C824.985,102.006 815.372,116.918 814.375,120.536 C814.186,121.953 813.996,123.371 813.807,124.787 C813.461,126.486 813.697,130.655 812.434,131.376 C783.297,127.901 769.452,138.419 769.092,138.696 L769.093,138.709 C769.093,138.709 769.085,138.703 769.084,138.702 C769.083,138.703 769.075,138.709 769.075,138.709 L769.076,138.696 C768.717,138.419 754.871,127.901 725.734,131.376 C724.471,130.655 724.708,126.486 724.361,124.787 C724.172,123.371 723.983,121.953 723.793,120.536 C722.796,116.918 713.184,102.006 713.184,102.006 C713.184,102.006 708.735,94.881 706.636,91.790 C706.271,91.252 704.142,87.978 703.239,86.408 C702.946,85.900 703.243,85.820 704.003,86.189 C704.136,86.251 728.482,98.301 729.450,99.114 C730.741,100.276 728.829,100.336 727.641,100.009 C726.129,99.819 715.246,96.977 715.246,96.977 C715.246,96.977 716.373,97.696 716.326,97.739 C716.923,99.382 729.363,111.754 730.940,112.756 C734.166,114.808 737.688,116.558 742.110,117.560 C744.756,118.159 748.132,119.023 750.723,118.560 C753.314,118.097 760.167,116.543 762.379,112.579 C764.063,109.563 765.255,94.468 765.970,86.224 C762.757,87.876 757.936,90.351 756.778,90.925 C756.625,91.000 755.485,91.327 756.305,89.978 C756.371,89.775 767.768,69.105 768.847,67.148 L768.758,66.984 C768.758,66.984 768.794,67.050 768.848,67.147 C768.901,67.050 768.937,66.984 768.937,66.984 L768.937,67.310 C768.940,67.316 768.946,67.327 768.950,67.332 C768.997,67.284 769.043,67.248 769.084,67.248 C769.128,67.248 769.179,67.290 769.231,67.347 L769.231,66.984 C769.231,66.984 781.794,89.765 781.864,89.978 C782.684,91.327 781.543,91.000 781.391,90.925 C780.233,90.351 775.411,87.876 772.198,86.224 C772.205,86.311 772.212,86.383 772.220,86.471 L780.917,90.925 C779.818,90.381 775.413,88.120 772.220,86.479 C772.938,94.775 774.123,109.593 775.789,112.579 C778.001,116.543 784.854,118.097 787.445,118.560 C790.036,119.023 793.412,118.159 796.058,117.560 C800.481,116.558 804.003,114.808 807.228,112.756 C808.805,111.754 821.245,99.382 821.843,97.739 C821.795,97.696 822.922,96.977 822.922,96.977 C822.922,96.977 812.039,99.819 810.527,100.009 C809.339,100.336 807.427,100.276 808.718,99.114 C809.686,98.301 834.032,86.251 834.165,86.189 C834.926,85.820 835.222,85.900 834.930,86.408 C834.026,87.978 831.897,91.252 831.532,91.790 ZM769.084,138.512 L769.106,138.029 C769.092,138.030 769.077,138.039 769.063,138.039 L769.084,138.512 ZM768.937,67.312 L768.937,67.347 C768.941,67.342 768.945,67.337 768.949,67.333 L768.937,67.312 ZM794.041,190.310 C793.649,187.647 801.099,188.178 803.130,187.646 C807.101,187.968 813.438,190.536 813.100,193.847 C812.967,194.052 812.945,194.117 812.716,194.216 C811.965,194.762 810.529,193.932 809.855,193.580 C808.070,192.647 806.140,191.872 803.888,191.261 C801.335,190.570 795.792,191.587 794.041,190.310 ZM791.391,200.263 C791.016,199.981 790.705,199.333 790.902,198.676 C791.369,197.112 793.186,196.565 794.880,196.234 C795.329,196.192 795.778,196.152 796.227,196.111 C797.721,196.084 800.173,196.006 802.244,196.294 C807.402,196.294 807.647,200.151 807.647,200.151 C807.647,200.151 802.166,201.277 798.921,201.351 C795.718,201.424 792.398,201.021 791.391,200.263 ZM724.896,177.518 C726.215,175.565 726.243,168.316 731.682,163.176 C737.121,158.035 746.950,154.905 746.950,154.905 L760.521,152.374 C760.521,152.374 768.051,151.628 768.928,151.425 C772.747,151.341 777.311,151.443 780.030,152.374 C785.391,154.208 797.842,157.436 797.842,157.436 C797.842,157.436 806.039,159.261 808.869,163.176 C811.699,167.091 812.538,175.413 813.958,177.518 C814.341,178.085 800.450,178.099 800.450,178.099 C800.450,178.099 796.565,178.801 794.146,179.197 C792.924,179.398 791.866,179.514 790.902,179.930 C786.051,182.017 778.581,188.511 776.702,193.424 C776.031,195.178 776.448,197.249 776.090,199.470 C776.069,204.944 776.049,210.420 776.028,215.895 C776.028,218.137 777.998,217.339 776.273,224.138 C774.548,230.937 780.232,219.724 783.557,225.420 C784.951,227.656 785.237,233.051 782.700,234.090 C781.388,234.628 779.044,234.127 777.620,234.518 C776.477,235.026 775.334,235.536 774.192,236.045 C773.232,236.383 772.124,236.409 771.009,236.594 C767.306,237.212 764.972,235.370 762.624,234.578 C761.201,234.100 758.741,234.661 757.360,234.090 C754.965,233.100 755.136,228.619 756.136,226.092 C756.630,224.845 756.568,223.618 759.490,223.456 C762.413,223.294 763.872,228.382 763.603,224.566 C763.334,220.749 764.093,218.666 764.093,216.505 C764.093,212.883 764.093,209.259 764.093,205.636 C764.052,203.703 764.011,201.770 763.970,199.835 C763.563,197.383 763.985,195.000 763.175,193.118 C761.074,188.245 753.995,182.055 749.036,179.930 C746.833,178.987 739.488,178.037 739.488,178.037 C739.488,178.037 724.517,178.080 724.896,177.518 ZM745.173,196.111 C745.622,196.152 746.070,196.192 746.519,196.234 C748.213,196.565 750.030,197.112 750.498,198.676 C750.694,199.333 750.384,199.981 750.008,200.263 C749.001,201.021 745.682,201.424 742.478,201.351 C739.233,201.277 733.752,200.151 733.752,200.151 C733.752,200.151 733.997,196.294 739.155,196.294 C741.227,196.006 743.679,196.084 745.173,196.111 ZM726.844,193.693 C726.051,192.833 727.298,191.620 727.796,191.188 C729.105,190.051 730.625,189.050 732.476,188.367 C733.273,188.178 734.071,187.990 734.869,187.801 C737.741,187.525 746.217,188.075 745.923,190.525 C744.984,191.854 738.834,191.064 737.025,191.184 C733.948,191.389 731.851,192.419 729.742,193.432 C729.088,193.746 727.419,194.507 726.844,193.693 ZM740.870,138.709 C740.870,138.709 748.692,139.504 759.221,142.929 C743.361,144.965 735.348,140.435 709.650,158.132 C697.505,166.474 690.849,183.437 685.392,193.919 C679.938,204.444 675.194,205.450 672.966,210.236 C673.135,210.362 673.304,210.488 673.472,210.613 C678.625,210.399 687.111,204.165 689.715,200.924 C699.436,187.044 707.485,163.015 731.050,153.544 C736.158,150.735 727.629,157.229 722.144,162.040 C716.650,166.815 716.331,172.327 715.118,180.702 C714.496,184.988 713.608,197.792 711.567,207.348 C704.046,228.134 675.773,242.840 658.175,246.125 C648.087,250.939 653.479,243.432 655.425,241.630 C657.378,239.798 663.182,237.924 666.988,235.459 C676.514,229.973 693.178,220.384 700.476,208.199 C703.119,203.890 708.159,197.595 708.087,192.323 C708.256,191.292 707.254,190.475 705.711,193.096 C701.051,201.417 688.118,212.657 676.629,219.163 C665.140,225.672 667.430,224.410 656.739,232.788 C656.336,232.676 655.934,232.559 655.532,232.436 C653.752,226.565 656.844,217.985 659.756,214.748 C667.031,206.595 670.974,199.793 679.042,189.327 C689.531,175.429 696.193,160.608 713.625,146.533 C725.865,136.594 740.870,138.709 740.870,138.709 ZM695.178,239.056 C695.606,238.975 696.035,238.891 696.464,238.805 C696.468,239.039 696.471,239.272 696.475,239.506 C688.756,247.751 687.935,251.549 683.816,256.885 C679.712,262.153 674.661,271.924 673.042,276.747 C669.590,287.059 669.661,305.727 669.656,305.796 C669.232,305.674 668.809,305.549 668.387,305.425 C667.086,301.846 665.419,298.673 664.972,294.684 C664.525,290.694 662.783,277.825 662.608,271.517 C662.526,268.502 663.136,263.582 662.282,261.909 C662.116,261.719 661.949,261.528 661.782,261.337 C661.370,261.329 660.958,261.319 660.547,261.305 C657.661,261.751 655.195,263.336 653.346,265.345 C643.369,271.185 634.999,266.884 635.013,266.812 C635.003,266.892 643.757,267.043 650.470,260.273 C656.039,253.767 668.169,252.070 677.226,247.496 C686.205,243.107 691.400,242.324 695.178,239.056 ZM730.357,282.400 C730.375,282.340 730.388,282.273 730.409,282.220 C731.393,280.829 732.511,279.470 733.735,278.153 C734.126,277.680 734.515,277.205 734.911,276.736 L735.224,276.620 C743.248,268.816 755.484,262.946 770.197,262.721 C788.268,262.446 798.491,270.663 798.491,270.663 C798.491,270.663 799.123,271.097 800.049,271.858 C800.059,271.814 800.071,271.773 800.081,271.730 C833.629,302.447 830.380,344.750 826.406,346.849 C819.740,325.039 808.948,314.865 808.948,314.865 C808.948,314.865 819.467,347.848 819.095,355.898 C814.073,393.504 792.463,395.625 776.604,430.002 C773.190,427.875 769.191,426.602 764.008,423.635 C758.825,420.668 719.967,398.670 721.861,365.419 C722.655,351.912 730.657,338.529 727.715,341.003 C719.227,346.076 715.387,358.314 712.835,363.419 C704.099,329.338 714.032,303.720 730.357,282.400 ZM751.301,282.132 C751.301,282.132 755.390,280.336 756.258,279.924 C759.757,278.261 763.696,278.151 768.377,277.430 C769.601,277.389 770.826,277.348 772.050,277.308 C776.276,277.939 779.915,278.620 783.189,280.056 C784.749,280.740 788.698,282.132 788.698,282.132 L793.355,281.835 L789.127,276.942 L787.988,271.294 C787.988,271.294 784.638,271.785 783.251,271.446 C781.513,271.024 778.989,271.231 777.191,271.507 C775.314,271.609 773.437,271.712 771.560,271.813 C767.174,271.629 762.787,271.446 758.401,271.263 C757.687,271.365 751.266,270.327 751.266,270.327 C751.266,270.327 751.549,273.724 750.933,275.599 C750.672,276.396 747.178,282.456 747.178,282.456 L751.301,282.132 ZM858.668,254.163 C852.993,242.844 850.941,217.888 851.247,217.913 C851.247,217.913 867.491,230.570 872.719,237.676 C877.947,244.782 884.478,261.294 881.093,276.946 C880.919,277.097 880.744,277.248 880.569,277.399 C878.204,276.339 879.124,277.626 878.674,275.369 C858.418,215.013 872.491,279.985 871.973,287.058 C871.455,294.130 872.296,302.329 866.670,306.383 C866.883,298.397 866.780,295.565 866.317,288.504 C865.855,281.444 864.343,265.482 858.668,254.163 Z" class="cls-3"/>
</svg>